<svg width="24" height="24" viewBox="0 0 24 24" fill="none" xmlns="http://www.w3.org/2000/svg">
<path d="M14.9499 12C14.9499 12.1333 14.9291 12.2583 14.8874 12.375C14.8457 12.4916 14.7749 12.6 14.6749 12.7L10.0749 17.3C9.89157 17.4833 9.65824 17.575 9.3749 17.575C9.09157 17.575 8.85824 17.4833 8.6749 17.3C8.49157 17.1166 8.3999 16.8833 8.3999 16.6C8.3999 16.3166 8.49157 16.0833 8.6749 15.9L12.5749 12L8.6749 8.09995C8.49157 7.91662 8.3999 7.68328 8.3999 7.39995C8.3999 7.11662 8.49157 6.88328 8.6749 6.69995C8.85824 6.51662 9.09157 6.42495 9.3749 6.42495C9.65824 6.42495 9.89157 6.51662 10.0749 6.69995L14.6749 11.3C14.7749 11.4 14.8457 11.5083 14.8874 11.625C14.9291 11.7416 14.9499 11.8666 14.9499 12Z" fill="#383E59"/>
</svg>
